Coordinates
version=1
nRows=26
nColumns=22
inDegrees=yes

Units are S.I. units (second, meters, Newtons, ...)
If the header above contains a line with 'inDegrees', this indicates whether rotational values are in degrees (yes) or radians (no).

endheader
time	pelvis_tilt	pelvis_list	pelvis_rotation	pelvis_tx	pelvis_ty	pelvis_tz	hip_flexion_r	hip_adduction_r	hip_rotation_r	knee_angle_r	ankle_angle_r	subtalar_angle_r	hip_flexion_l	hip_adduction_l	hip_rotation_l	knee_angle_l	ankle_angle_l	subtalar_angle_l	lumbar_extension	lumbar_bending	lumbar_rotation
      2.97000000	      6.31946129	     -2.80805055	     -1.01657179	      0.19065131	      0.91018180	     -0.05070980	     -7.62349418	      6.51172657	     -1.77250424	    -28.56520765	     24.15426039	     -6.04896162	     25.11715425	     -3.33448245	     -5.45332740	    -19.80924051	     -6.12299509	     -0.12635262	    -17.42843661	      1.94855440	     -1.87732349
      2.98000000	      6.37827919	     -2.95574422	     -0.84066763	      0.17928109	      0.91156839	     -0.05012953	     -7.06095449	      6.76125618	     -2.11179806	    -28.23745834	     24.09129676	     -6.45246836	     25.08990549	     -3.60707792	     -4.85832609	    -19.69658706	     -6.00686315	      1.46833158	    -17.66984966	      2.19253744	     -2.09646137
      2.99000000	      6.47536714	     -3.09175459	     -0.61805364	      0.16821980	      0.91323519	     -0.04959628	     -6.57715113	      7.01340029	     -2.42330836	    -27.86371708	     23.85880830	     -6.80614568	     25.03611004	     -3.87709321	     -4.21423689	    -19.96811200	     -5.38205622	      2.60997713	    -17.90662714	      2.42211483	     -2.36815404
      3.00000000	      6.60381402	     -3.23664718	     -0.33720921	      0.15748342	      0.91518109	     -0.04913777	     -6.18395870	      7.28368446	     -2.75853589	    -27.40487268	     23.45429443	     -7.11918618	     24.96348237	     -4.16314922	     -3.55830945	    -20.60590307	     -4.34359003	      3.24738619	    -18.12617561	      2.67051968	     -2.69466035
      3.01000000	      6.78541992	     -3.37949800	     -0.01732540	      0.14705905	      0.91743870	     -0.04872405	     -5.91250974	      7.56242553	     -3.07560300	    -26.84904339	     22.93470479	     -7.33055182	     24.82595508	     -4.45628323	     -2.89062494	    -21.55588573	     -2.97681209	      3.44445835	    -18.36205494	      2.91630882	     -3.04010526
      3.02000000	      6.94942618	     -3.52676984	      0.32403582	      0.13691414	      0.91987069	     -0.04833657	     -5.67764107	      7.85402431	     -3.36677897	    -26.20762943	     22.25774918	     -7.60855153	     24.69838895	     -4.76236763	     -2.22000033	    -22.78232435	     -1.40043137	      3.30922290	    -18.53451225	      3.16739960	     -3.39081761
      3.03000000	      7.09243722	     -3.64655154	      0.65263261	      0.12705937	      0.92244627	     -0.04796151	     -5.46535133	      8.10130636	     -3.67673303	    -25.50997784	     21.49804307	     -7.96106387	     24.55332512	     -5.05563918	     -1.60775794	    -24.21443595	      0.36606875	      2.55819485	    -18.63697467	      3.37531715	     -3.67690677
      3.04000000	      7.25719918	     -3.74787541	      0.96851327	      0.11743044	      0.92521130	     -0.04758350	     -5.33498561	      8.32923795	     -3.93064194	    -24.72916699	     20.67467560	     -8.18261220	     24.32125109	     -5.33579344	     -1.01019729	    -25.77167480	      2.16575862	      1.64127410	    -18.73834559	      3.55351173	     -3.95815870
      3.05000000	      7.40710695	     -3.82833984	      1.25176088	      0.10799254	      0.92804840	     -0.04723486	     -5.22761391	      8.51896632	     -4.15241682	    -23.90447764	     19.80193820	     -8.33890558	     24.04032972	     -5.59695782	     -0.44446787	    -27.42607943	      3.94531252	      0.54834206	    -18.79913356	      3.70598386	     -4.19907604
      3.06000000	      7.52156500	     -3.87235995	      1.49549577	      0.09876054	      0.93088885	     -0.04688967	     -5.13302021	      8.65303627	     -4.35574318	    -23.01716304	     18.92679727	     -8.43422686	     23.71097006	     -5.82061828	      0.07469102	    -29.11879346	      5.68426007	     -0.70340800	    -18.79253140	      3.80352220	     -4.38120021
      3.07000000	      7.60711654	     -3.89626547	      1.70363011	      0.08964652	      0.93366491	     -0.04656486	     -5.02890771	      8.74966149	     -4.53695044	    -22.11720250	     18.02756401	     -8.46750314	     23.34580197	     -6.02180281	      0.53615245	    -30.85171551	      7.31797052	     -2.00325623	    -18.74421679	      3.87348579	     -4.54823361
      3.08000000	      7.65187078	     -3.88989136	      1.87173573	      0.08067136	      0.93631504	     -0.04627628	     -4.90323018	      8.79035807	     -4.73539694	    -21.20678147	     17.15793060	     -8.44368188	     22.93689463	     -6.18136014	      0.95368910	    -32.57758580	      8.87647997	     -3.33005029	    -18.63534773	      3.90300237	     -4.64325719
      3.09000000	      7.66560994	     -3.87083725	      2.01263552	      0.07177711	      0.93878349	     -0.04602870	     -4.74738482	      8.80280106	     -4.92977772	    -20.31531136	     16.29801596	     -8.37641777	     22.49665538	     -6.31863258	      1.31473651	    -34.31002059	     10.31750224	     -4.60983512	    -18.48778425	      3.91716889	     -4.73319382
      3.10000000	      7.64980088	     -3.84341586	      2.13236606	      0.06295353	      0.94102689	     -0.04584144	     -4.55520742	      8.79040384	     -5.13511498	    -19.45503860	     15.46292536	     -8.27654294	     22.02376850	     -6.43490321	      1.62688784	    -36.03619149	     11.63875984	     -5.81685254	    -18.30526488	      3.92668332	     -4.80583085
      3.11000000	      7.61485100	     -3.81519366	      2.23488333	      0.05418688	      0.94301574	     -0.04570796	     -4.32440174	      8.76347615	     -5.35354788	    -18.64950187	     14.66350955	     -8.15268603	     21.51074999	     -6.53808248	      1.89650452	    -37.75105662	     12.84572233	     -6.92681005	    -18.10208366	      3.93833318	     -4.86503583
      3.12000000	      7.56973462	     -3.79651032	      2.32346531	      0.04545635	      0.94472812	     -0.04563716	     -4.05313804	      8.73453303	     -5.57607973	    -17.91504497	     13.90258930	     -8.01547608	     20.95320390	     -6.63932785	      2.12824660	    -39.45421150	     13.93339981	     -7.92199208	    -17.89303048	      3.96820422	     -4.91957985
      3.13000000	      7.52245945	     -3.79367651	      2.39813745	      0.03675968	      0.94615182	     -0.04561018	     -3.74018953	      8.71272874	     -5.79617612	    -17.26743418	     13.19027612	     -7.87713573	     20.34260626	     -6.74884627	      2.32252429	    -41.13856631	     14.89702505	     -8.78655228	    -17.68788106	      4.02121577	     -4.96782471
      3.14000000	      7.48427114	     -3.81383513	      2.45942832	      0.02809310	      0.94728938	     -0.04564564	     -3.38747391	      8.70495418	     -6.00462759	    -16.72517346	     12.53409730	     -7.74171645	     19.66433788	     -6.87359821	      2.48129933	    -42.79267067	     15.75627080	     -9.53859866	    -17.50071146	      4.10979841	     -5.01579745
      3.15000000	      7.45717552	     -3.86292517	      2.50993696	      0.01945004	      0.94814094	     -0.04571503	     -2.99533633	      8.72162985	     -6.19410854	    -16.28442645	     11.93266071	     -7.62044601	     18.91661910	     -7.02665820	      2.59828100	    -44.40627161	     16.49774247	    -10.15182513	    -17.33336381	      4.23685601	     -5.07086659
      3.16000000	      7.44995062	     -3.95351994	      2.54857922	      0.01081730	      0.94871972	     -0.04582213	     -2.56166917	      8.77364604	     -6.37918675	    -15.96522932	     11.38150693	     -7.51127497	     18.09237946	     -7.22613095	      2.66366531	    -45.97129139	     17.11216808	    -10.64481269	    -17.19852085	      4.41695159	     -5.12050696
      3.17000000	      7.46034710	     -4.07503924	      2.58396154	      0.00220505	      0.94904757	     -0.04597092	     -2.09725859	      8.85711214	     -6.52621406	    -15.74173938	     10.86907930	     -7.45712957	     17.18099940	     -7.45632044	      2.69395587	    -47.45515157	     17.63870958	    -10.86464227	    -17.09006346	      4.63970464	     -5.20336419
      3.18000000	      7.47430324	     -4.23214124	      2.60556442	     -0.00640917	      0.94911631	     -0.04614446	     -1.56655166	      8.96705291	     -6.69564419	    -15.64762850	     10.39454387	     -7.38362498	     16.20412280	     -7.73328903	      2.65102017	    -48.85697393	     18.07265553	    -11.08523867	    -16.99209601	      4.90318586	     -5.26935391
      3.19000000	      7.48888061	     -4.41447691	      2.61563633	     -0.01503556	      0.94895449	     -0.04633617	     -0.97689919	      9.09700421	     -6.86287239	    -15.66274557	      9.95748648	     -7.30510464	     15.16045112	     -8.04249351	      2.54697176	    -50.15524824	     18.40205120	    -11.22983663	    -16.89988802	      5.19535763	     -5.34960697
      3.20000000	      7.49562831	     -4.61659137	      2.61896825	     -0.02368254	      0.94858377	     -0.04655674	     -0.32355569	      9.24181176	     -7.02957243	    -15.77416176	      9.54358026	     -7.23141352	     14.05635533	     -8.37350553	      2.38681955	    -51.33182273	     18.63484036	    -11.25886614	    -16.80430276	      5.51044890	     -5.44460104
      3.21000000	      7.48716607	     -4.83369587	      2.62072263	     -0.03235410	      0.94802070	     -0.04681718	      0.39669291	      9.39698833	     -7.18493247	    -15.97074461	      9.13250615	     -7.15637649	     12.90356915	     -8.71757516	      2.18109369	    -52.37862109	     18.76823906	    -11.15384455	    -16.68977559	      5.84457668	     -5.56223646
      3.22000000	      7.45123941	     -5.05559671	      2.62006902	     -0.04106576	      0.94727728	     -0.04710461	      1.18965961	      9.55331262	     -7.32737366	    -16.23433410	      8.71251750	     -7.06823068	     11.71977011	     -9.05738039	      1.93935633	    -53.28869405	     18.77686258	    -10.83795238	    -16.54442844	      6.18049599	     -5.70078434
